<mxfile host="app.diagrams.net" modified="2023-05-09T18:53:26.370Z" agent="Mozilla/5.0 (Windows NT 10.0; Win64; x64) AppleWebKit/537.36 (KHTML, like Gecko) Chrome/113.0.0.0 Safari/537.36" etag="GIJXcJGiUQ9xvtGmeEx_" version="21.2.9" type="device">
  <diagram name="第 1 页" id="rMGnCGSOo1Qh0CnOpeR7">
    <mxGraphModel dx="1154" dy="575" grid="1" gridSize="10" guides="1" tooltips="1" connect="1" arrows="1" fold="1" page="1" pageScale="1" pageWidth="827" pageHeight="1169" math="0" shadow="0">
      <root>
        <mxCell id="0" />
        <mxCell id="1" parent="0" />
        <mxCell id="a8-iyr60ROHL3fEyFj0I-44" value="" style="endArrow=classic;html=1;rounded=0;entryX=1;entryY=0.5;entryDx=0;entryDy=0;" edge="1" parent="1" target="a8-iyr60ROHL3fEyFj0I-1">
          <mxGeometry width="50" height="50" relative="1" as="geometry">
            <mxPoint x="420" y="370" as="sourcePoint" />
            <mxPoint x="420" y="260" as="targetPoint" />
            <Array as="points">
              <mxPoint x="420" y="270" />
            </Array>
          </mxGeometry>
        </mxCell>
        <mxCell id="a8-iyr60ROHL3fEyFj0I-48" value="購買的資料集" style="edgeLabel;html=1;align=center;verticalAlign=middle;resizable=0;points=[];" vertex="1" connectable="0" parent="a8-iyr60ROHL3fEyFj0I-44">
          <mxGeometry x="0.4359" y="-2" relative="1" as="geometry">
            <mxPoint x="-3" y="-8" as="offset" />
          </mxGeometry>
        </mxCell>
        <mxCell id="a8-iyr60ROHL3fEyFj0I-43" value="" style="endArrow=classic;html=1;rounded=0;entryX=1;entryY=0.5;entryDx=0;entryDy=0;" edge="1" parent="1" target="a8-iyr60ROHL3fEyFj0I-2">
          <mxGeometry width="50" height="50" relative="1" as="geometry">
            <mxPoint x="420" y="432" as="sourcePoint" />
            <mxPoint x="420" y="550" as="targetPoint" />
            <Array as="points">
              <mxPoint x="420" y="540" />
            </Array>
          </mxGeometry>
        </mxCell>
        <mxCell id="a8-iyr60ROHL3fEyFj0I-50" value="購買的資料集" style="edgeLabel;html=1;align=center;verticalAlign=middle;resizable=0;points=[];" vertex="1" connectable="0" parent="a8-iyr60ROHL3fEyFj0I-43">
          <mxGeometry x="0.5299" relative="1" as="geometry">
            <mxPoint x="7" y="-10" as="offset" />
          </mxGeometry>
        </mxCell>
        <mxCell id="a8-iyr60ROHL3fEyFj0I-37" value="" style="endArrow=classic;html=1;rounded=0;entryX=0.621;entryY=0.002;entryDx=0;entryDy=0;entryPerimeter=0;" edge="1" parent="1" target="a8-iyr60ROHL3fEyFj0I-2">
          <mxGeometry width="50" height="50" relative="1" as="geometry">
            <mxPoint x="380" y="432" as="sourcePoint" />
            <mxPoint x="220" y="450" as="targetPoint" />
            <Array as="points">
              <mxPoint x="380" y="450" />
              <mxPoint x="230" y="450" />
            </Array>
          </mxGeometry>
        </mxCell>
        <mxCell id="a8-iyr60ROHL3fEyFj0I-40" value="歷史輸出資料" style="edgeLabel;html=1;align=center;verticalAlign=middle;resizable=0;points=[];" vertex="1" connectable="0" parent="a8-iyr60ROHL3fEyFj0I-37">
          <mxGeometry x="-0.0199" y="-1" relative="1" as="geometry">
            <mxPoint x="19" y="-9" as="offset" />
          </mxGeometry>
        </mxCell>
        <mxCell id="a8-iyr60ROHL3fEyFj0I-36" value="" style="endArrow=classic;html=1;rounded=0;entryX=0.625;entryY=1;entryDx=0;entryDy=0;entryPerimeter=0;" edge="1" parent="1" target="a8-iyr60ROHL3fEyFj0I-1">
          <mxGeometry width="50" height="50" relative="1" as="geometry">
            <mxPoint x="380" y="370" as="sourcePoint" />
            <mxPoint x="220" y="350" as="targetPoint" />
            <Array as="points">
              <mxPoint x="380" y="350" />
              <mxPoint x="230" y="350" />
            </Array>
          </mxGeometry>
        </mxCell>
        <mxCell id="a8-iyr60ROHL3fEyFj0I-39" value="歷史輸出資料" style="edgeLabel;html=1;align=center;verticalAlign=middle;resizable=0;points=[];" vertex="1" connectable="0" parent="a8-iyr60ROHL3fEyFj0I-36">
          <mxGeometry x="0.0054" y="-1" relative="1" as="geometry">
            <mxPoint x="16" y="-9" as="offset" />
          </mxGeometry>
        </mxCell>
        <mxCell id="a8-iyr60ROHL3fEyFj0I-11" style="edgeStyle=orthogonalEdgeStyle;rounded=0;orthogonalLoop=1;jettySize=auto;html=1;entryX=0.375;entryY=0;entryDx=0;entryDy=0;entryPerimeter=0;" edge="1" parent="1" source="a8-iyr60ROHL3fEyFj0I-1" target="a8-iyr60ROHL3fEyFj0I-7">
          <mxGeometry relative="1" as="geometry">
            <mxPoint x="70" y="270" as="targetPoint" />
          </mxGeometry>
        </mxCell>
        <mxCell id="a8-iyr60ROHL3fEyFj0I-12" value="欲爬取之網址" style="edgeLabel;html=1;align=center;verticalAlign=middle;resizable=0;points=[];" vertex="1" connectable="0" parent="a8-iyr60ROHL3fEyFj0I-11">
          <mxGeometry x="-0.1841" y="-1" relative="1" as="geometry">
            <mxPoint x="22" y="-9" as="offset" />
          </mxGeometry>
        </mxCell>
        <mxCell id="a8-iyr60ROHL3fEyFj0I-41" style="edgeStyle=orthogonalEdgeStyle;rounded=0;orthogonalLoop=1;jettySize=auto;html=1;exitX=1;exitY=0.75;exitDx=0;exitDy=0;entryX=0.5;entryY=0;entryDx=0;entryDy=0;" edge="1" parent="1" source="a8-iyr60ROHL3fEyFj0I-1" target="a8-iyr60ROHL3fEyFj0I-5">
          <mxGeometry relative="1" as="geometry">
            <mxPoint x="400" y="290" as="targetPoint" />
          </mxGeometry>
        </mxCell>
        <mxCell id="a8-iyr60ROHL3fEyFj0I-47" value="功能費用" style="edgeLabel;html=1;align=center;verticalAlign=middle;resizable=0;points=[];" vertex="1" connectable="0" parent="a8-iyr60ROHL3fEyFj0I-41">
          <mxGeometry x="-0.3683" y="1" relative="1" as="geometry">
            <mxPoint x="4" y="-8" as="offset" />
          </mxGeometry>
        </mxCell>
        <mxCell id="a8-iyr60ROHL3fEyFj0I-1" value="使用者" style="whiteSpace=wrap;html=1;aspect=fixed;" vertex="1" parent="1">
          <mxGeometry x="180" y="230" width="80" height="80" as="geometry" />
        </mxCell>
        <mxCell id="a8-iyr60ROHL3fEyFj0I-13" style="edgeStyle=orthogonalEdgeStyle;rounded=0;orthogonalLoop=1;jettySize=auto;html=1;entryX=0.375;entryY=1;entryDx=0;entryDy=0;entryPerimeter=0;" edge="1" parent="1" source="a8-iyr60ROHL3fEyFj0I-2" target="a8-iyr60ROHL3fEyFj0I-7">
          <mxGeometry relative="1" as="geometry">
            <mxPoint x="70" y="540" as="targetPoint" />
          </mxGeometry>
        </mxCell>
        <mxCell id="a8-iyr60ROHL3fEyFj0I-14" value="欲爬取之網址" style="edgeLabel;html=1;align=center;verticalAlign=middle;resizable=0;points=[];" vertex="1" connectable="0" parent="a8-iyr60ROHL3fEyFj0I-13">
          <mxGeometry x="-0.4027" y="2" relative="1" as="geometry">
            <mxPoint x="3" y="8" as="offset" />
          </mxGeometry>
        </mxCell>
        <mxCell id="a8-iyr60ROHL3fEyFj0I-42" style="edgeStyle=orthogonalEdgeStyle;rounded=0;orthogonalLoop=1;jettySize=auto;html=1;exitX=1;exitY=0.25;exitDx=0;exitDy=0;entryX=0.5;entryY=1;entryDx=0;entryDy=0;" edge="1" parent="1" source="a8-iyr60ROHL3fEyFj0I-2" target="a8-iyr60ROHL3fEyFj0I-5">
          <mxGeometry relative="1" as="geometry">
            <mxPoint x="400" y="520" as="targetPoint" />
          </mxGeometry>
        </mxCell>
        <mxCell id="a8-iyr60ROHL3fEyFj0I-46" value="功能費用" style="edgeLabel;html=1;align=center;verticalAlign=middle;resizable=0;points=[];" vertex="1" connectable="0" parent="a8-iyr60ROHL3fEyFj0I-42">
          <mxGeometry x="-0.4848" y="1" relative="1" as="geometry">
            <mxPoint x="13" y="-8" as="offset" />
          </mxGeometry>
        </mxCell>
        <mxCell id="a8-iyr60ROHL3fEyFj0I-55" style="edgeStyle=orthogonalEdgeStyle;rounded=0;orthogonalLoop=1;jettySize=auto;html=1;exitX=1;exitY=0.75;exitDx=0;exitDy=0;entryX=0.037;entryY=0.677;entryDx=0;entryDy=0;entryPerimeter=0;" edge="1" parent="1" source="a8-iyr60ROHL3fEyFj0I-2" target="a8-iyr60ROHL3fEyFj0I-8">
          <mxGeometry relative="1" as="geometry" />
        </mxCell>
        <mxCell id="a8-iyr60ROHL3fEyFj0I-56" value="創作者製作、更新之程式" style="edgeLabel;html=1;align=center;verticalAlign=middle;resizable=0;points=[];" vertex="1" connectable="0" parent="a8-iyr60ROHL3fEyFj0I-55">
          <mxGeometry x="0.0938" relative="1" as="geometry">
            <mxPoint x="-2" y="-9" as="offset" />
          </mxGeometry>
        </mxCell>
        <mxCell id="a8-iyr60ROHL3fEyFj0I-2" value="創作者" style="whiteSpace=wrap;html=1;aspect=fixed;" vertex="1" parent="1">
          <mxGeometry x="180" y="500" width="80" height="80" as="geometry" />
        </mxCell>
        <mxCell id="a8-iyr60ROHL3fEyFj0I-70" style="edgeStyle=orthogonalEdgeStyle;rounded=0;orthogonalLoop=1;jettySize=auto;html=1;entryX=1;entryY=0.5;entryDx=0;entryDy=0;" edge="1" parent="1" source="a8-iyr60ROHL3fEyFj0I-3" target="a8-iyr60ROHL3fEyFj0I-9">
          <mxGeometry relative="1" as="geometry" />
        </mxCell>
        <mxCell id="a8-iyr60ROHL3fEyFj0I-71" value="進行系統維護" style="edgeLabel;html=1;align=center;verticalAlign=middle;resizable=0;points=[];" vertex="1" connectable="0" parent="a8-iyr60ROHL3fEyFj0I-70">
          <mxGeometry x="0.1414" y="2" relative="1" as="geometry">
            <mxPoint x="7" y="-12" as="offset" />
          </mxGeometry>
        </mxCell>
        <mxCell id="a8-iyr60ROHL3fEyFj0I-3" value="系統維護部門" style="whiteSpace=wrap;html=1;aspect=fixed;" vertex="1" parent="1">
          <mxGeometry x="480" y="640" width="80" height="80" as="geometry" />
        </mxCell>
        <mxCell id="a8-iyr60ROHL3fEyFj0I-4" value="2&lt;br&gt;財務與會計" style="ellipse;whiteSpace=wrap;html=1;aspect=fixed;" vertex="1" parent="1">
          <mxGeometry x="490" y="230" width="80" height="80" as="geometry" />
        </mxCell>
        <mxCell id="a8-iyr60ROHL3fEyFj0I-5" value="1.1&lt;br&gt;資料集服務" style="ellipse;whiteSpace=wrap;html=1;aspect=fixed;" vertex="1" parent="1">
          <mxGeometry x="360" y="360" width="80" height="80" as="geometry" />
        </mxCell>
        <mxCell id="a8-iyr60ROHL3fEyFj0I-19" style="edgeStyle=orthogonalEdgeStyle;rounded=0;orthogonalLoop=1;jettySize=auto;html=1;" edge="1" parent="1" source="a8-iyr60ROHL3fEyFj0I-7">
          <mxGeometry relative="1" as="geometry">
            <mxPoint x="220" y="400" as="targetPoint" />
            <Array as="points">
              <mxPoint x="140" y="400" />
              <mxPoint x="140" y="400" />
            </Array>
          </mxGeometry>
        </mxCell>
        <mxCell id="a8-iyr60ROHL3fEyFj0I-20" value="輸出資料的紀錄" style="edgeLabel;html=1;align=center;verticalAlign=middle;resizable=0;points=[];" vertex="1" connectable="0" parent="a8-iyr60ROHL3fEyFj0I-19">
          <mxGeometry x="-0.325" relative="1" as="geometry">
            <mxPoint x="10" y="-9" as="offset" />
          </mxGeometry>
        </mxCell>
        <mxCell id="a8-iyr60ROHL3fEyFj0I-86" style="edgeStyle=orthogonalEdgeStyle;rounded=0;orthogonalLoop=1;jettySize=auto;html=1;exitX=0;exitY=1;exitDx=0;exitDy=0;entryX=0.305;entryY=0.037;entryDx=0;entryDy=0;entryPerimeter=0;" edge="1" parent="1" source="a8-iyr60ROHL3fEyFj0I-7" target="a8-iyr60ROHL3fEyFj0I-9">
          <mxGeometry relative="1" as="geometry">
            <mxPoint x="51.571428571428555" y="610.0000000000001" as="targetPoint" />
            <Array as="points">
              <mxPoint x="52" y="610" />
              <mxPoint x="304" y="610" />
            </Array>
          </mxGeometry>
        </mxCell>
        <mxCell id="a8-iyr60ROHL3fEyFj0I-87" value="維護狀況" style="edgeLabel;html=1;align=center;verticalAlign=middle;resizable=0;points=[];" vertex="1" connectable="0" parent="a8-iyr60ROHL3fEyFj0I-86">
          <mxGeometry x="0.5536" relative="1" as="geometry">
            <mxPoint x="9" y="-10" as="offset" />
          </mxGeometry>
        </mxCell>
        <mxCell id="a8-iyr60ROHL3fEyFj0I-7" value="1.2&lt;br&gt;爬蟲作業" style="ellipse;whiteSpace=wrap;html=1;aspect=fixed;" vertex="1" parent="1">
          <mxGeometry x="40" y="360" width="80" height="80" as="geometry" />
        </mxCell>
        <mxCell id="a8-iyr60ROHL3fEyFj0I-66" style="edgeStyle=orthogonalEdgeStyle;rounded=0;orthogonalLoop=1;jettySize=auto;html=1;entryX=0.625;entryY=1.167;entryDx=0;entryDy=0;entryPerimeter=0;" edge="1" parent="1" source="a8-iyr60ROHL3fEyFj0I-8" target="a8-iyr60ROHL3fEyFj0I-57">
          <mxGeometry relative="1" as="geometry">
            <mxPoint x="560" y="460" as="targetPoint" />
          </mxGeometry>
        </mxCell>
        <mxCell id="a8-iyr60ROHL3fEyFj0I-67" value="程式" style="edgeLabel;html=1;align=center;verticalAlign=middle;resizable=0;points=[];" vertex="1" connectable="0" parent="a8-iyr60ROHL3fEyFj0I-66">
          <mxGeometry x="-0.0704" y="1" relative="1" as="geometry">
            <mxPoint x="7" y="-9" as="offset" />
          </mxGeometry>
        </mxCell>
        <mxCell id="a8-iyr60ROHL3fEyFj0I-8" value="1.3&lt;br&gt;程式上傳" style="ellipse;whiteSpace=wrap;html=1;aspect=fixed;" vertex="1" parent="1">
          <mxGeometry x="480" y="505" width="80" height="80" as="geometry" />
        </mxCell>
        <mxCell id="a8-iyr60ROHL3fEyFj0I-72" style="edgeStyle=orthogonalEdgeStyle;rounded=0;orthogonalLoop=1;jettySize=auto;html=1;exitX=1;exitY=0;exitDx=0;exitDy=0;entryX=0.5;entryY=1;entryDx=0;entryDy=0;" edge="1" parent="1">
          <mxGeometry relative="1" as="geometry">
            <mxPoint x="519" y="584.9999999999999" as="targetPoint" />
            <mxPoint x="347.2842712474594" y="651.7157287525408" as="sourcePoint" />
            <Array as="points">
              <mxPoint x="347" y="670" />
              <mxPoint x="359" y="670" />
              <mxPoint x="359" y="630" />
              <mxPoint x="519" y="630" />
            </Array>
          </mxGeometry>
        </mxCell>
        <mxCell id="a8-iyr60ROHL3fEyFj0I-80" value="系統維護" style="edgeLabel;html=1;align=center;verticalAlign=middle;resizable=0;points=[];" vertex="1" connectable="0" parent="a8-iyr60ROHL3fEyFj0I-72">
          <mxGeometry x="-0.0262" relative="1" as="geometry">
            <mxPoint x="-3" y="-10" as="offset" />
          </mxGeometry>
        </mxCell>
        <mxCell id="a8-iyr60ROHL3fEyFj0I-73" style="edgeStyle=orthogonalEdgeStyle;rounded=0;orthogonalLoop=1;jettySize=auto;html=1;exitX=0;exitY=0;exitDx=0;exitDy=0;entryX=0;entryY=0.5;entryDx=0;entryDy=0;" edge="1" parent="1">
          <mxGeometry relative="1" as="geometry">
            <mxPoint x="292.7157287525406" y="651.7157287525406" as="sourcePoint" />
            <mxPoint x="41" y="400" as="targetPoint" />
            <Array as="points">
              <mxPoint x="301" y="652" />
              <mxPoint x="301" y="670" />
              <mxPoint x="281" y="670" />
              <mxPoint x="281" y="630" />
              <mxPoint x="21" y="630" />
              <mxPoint x="21" y="400" />
            </Array>
          </mxGeometry>
        </mxCell>
        <mxCell id="a8-iyr60ROHL3fEyFj0I-81" value="系統維護" style="edgeLabel;html=1;align=center;verticalAlign=middle;resizable=0;points=[];" vertex="1" connectable="0" parent="a8-iyr60ROHL3fEyFj0I-73">
          <mxGeometry x="-0.5384" y="-2" relative="1" as="geometry">
            <mxPoint x="12" y="-8" as="offset" />
          </mxGeometry>
        </mxCell>
        <mxCell id="a8-iyr60ROHL3fEyFj0I-75" style="edgeStyle=orthogonalEdgeStyle;rounded=0;orthogonalLoop=1;jettySize=auto;html=1;entryX=1;entryY=0.5;entryDx=0;entryDy=0;" edge="1" parent="1">
          <mxGeometry relative="1" as="geometry">
            <mxPoint x="280" y="674" as="sourcePoint" />
            <mxPoint x="160" y="674" as="targetPoint" />
          </mxGeometry>
        </mxCell>
        <mxCell id="a8-iyr60ROHL3fEyFj0I-82" value="系統維護" style="edgeLabel;html=1;align=center;verticalAlign=middle;resizable=0;points=[];" vertex="1" connectable="0" parent="a8-iyr60ROHL3fEyFj0I-75">
          <mxGeometry x="0.1056" y="1" relative="1" as="geometry">
            <mxPoint x="6" y="-15" as="offset" />
          </mxGeometry>
        </mxCell>
        <mxCell id="a8-iyr60ROHL3fEyFj0I-78" style="edgeStyle=orthogonalEdgeStyle;rounded=0;orthogonalLoop=1;jettySize=auto;html=1;entryX=0.5;entryY=1;entryDx=0;entryDy=0;" edge="1" parent="1" source="a8-iyr60ROHL3fEyFj0I-9" target="a8-iyr60ROHL3fEyFj0I-76">
          <mxGeometry relative="1" as="geometry">
            <mxPoint x="320" y="612" as="targetPoint" />
            <Array as="points">
              <mxPoint x="320" y="620" />
              <mxPoint x="320" y="620" />
            </Array>
          </mxGeometry>
        </mxCell>
        <mxCell id="a8-iyr60ROHL3fEyFj0I-79" value="維護紀錄" style="edgeLabel;html=1;align=center;verticalAlign=middle;resizable=0;points=[];" vertex="1" connectable="0" parent="a8-iyr60ROHL3fEyFj0I-78">
          <mxGeometry x="-0.2222" relative="1" as="geometry">
            <mxPoint x="28" y="-14" as="offset" />
          </mxGeometry>
        </mxCell>
        <mxCell id="a8-iyr60ROHL3fEyFj0I-9" value="1.4&lt;br&gt;系統維護" style="ellipse;whiteSpace=wrap;html=1;aspect=fixed;" vertex="1" parent="1">
          <mxGeometry x="280" y="640" width="80" height="80" as="geometry" />
        </mxCell>
        <mxCell id="a8-iyr60ROHL3fEyFj0I-15" value="" style="endArrow=classic;html=1;rounded=0;entryX=0;entryY=0.75;entryDx=0;entryDy=0;" edge="1" parent="1" target="a8-iyr60ROHL3fEyFj0I-1">
          <mxGeometry width="50" height="50" relative="1" as="geometry">
            <mxPoint x="90" y="360" as="sourcePoint" />
            <mxPoint x="90" y="280" as="targetPoint" />
            <Array as="points">
              <mxPoint x="90" y="290" />
            </Array>
          </mxGeometry>
        </mxCell>
        <mxCell id="a8-iyr60ROHL3fEyFj0I-17" value="輸出的資料" style="edgeLabel;html=1;align=center;verticalAlign=middle;resizable=0;points=[];" vertex="1" connectable="0" parent="a8-iyr60ROHL3fEyFj0I-15">
          <mxGeometry x="0.2375" y="2" relative="1" as="geometry">
            <mxPoint x="11" y="-8" as="offset" />
          </mxGeometry>
        </mxCell>
        <mxCell id="a8-iyr60ROHL3fEyFj0I-16" value="" style="endArrow=classic;html=1;rounded=0;entryX=0;entryY=0.25;entryDx=0;entryDy=0;" edge="1" parent="1" target="a8-iyr60ROHL3fEyFj0I-2">
          <mxGeometry width="50" height="50" relative="1" as="geometry">
            <mxPoint x="90" y="440" as="sourcePoint" />
            <mxPoint x="90" y="530" as="targetPoint" />
            <Array as="points">
              <mxPoint x="90" y="520" />
            </Array>
          </mxGeometry>
        </mxCell>
        <mxCell id="a8-iyr60ROHL3fEyFj0I-18" value="輸出的資料" style="edgeLabel;html=1;align=center;verticalAlign=middle;resizable=0;points=[];" vertex="1" connectable="0" parent="a8-iyr60ROHL3fEyFj0I-16">
          <mxGeometry x="0.1412" y="-1" relative="1" as="geometry">
            <mxPoint x="23" y="-11" as="offset" />
          </mxGeometry>
        </mxCell>
        <mxCell id="a8-iyr60ROHL3fEyFj0I-24" value="歷史輸出資料" style="shape=partialRectangle;whiteSpace=wrap;html=1;left=0;right=0;fillColor=none;" vertex="1" parent="1">
          <mxGeometry x="220" y="382" width="80" height="30" as="geometry" />
        </mxCell>
        <mxCell id="a8-iyr60ROHL3fEyFj0I-26" value="" style="endArrow=classic;html=1;rounded=0;" edge="1" parent="1">
          <mxGeometry width="50" height="50" relative="1" as="geometry">
            <mxPoint x="300" y="390" as="sourcePoint" />
            <mxPoint x="360" y="390" as="targetPoint" />
          </mxGeometry>
        </mxCell>
        <mxCell id="a8-iyr60ROHL3fEyFj0I-27" value="歷史資料" style="edgeLabel;html=1;align=center;verticalAlign=middle;resizable=0;points=[];" vertex="1" connectable="0" parent="a8-iyr60ROHL3fEyFj0I-26">
          <mxGeometry x="-0.4667" y="2" relative="1" as="geometry">
            <mxPoint x="10" y="-7" as="offset" />
          </mxGeometry>
        </mxCell>
        <mxCell id="a8-iyr60ROHL3fEyFj0I-29" value="" style="endArrow=classic;html=1;rounded=0;" edge="1" parent="1">
          <mxGeometry width="50" height="50" relative="1" as="geometry">
            <mxPoint x="361" y="410" as="sourcePoint" />
            <mxPoint x="301" y="410" as="targetPoint" />
          </mxGeometry>
        </mxCell>
        <mxCell id="a8-iyr60ROHL3fEyFj0I-31" value="年月日" style="edgeLabel;html=1;align=center;verticalAlign=middle;resizable=0;points=[];" vertex="1" connectable="0" parent="a8-iyr60ROHL3fEyFj0I-29">
          <mxGeometry x="0.38" relative="1" as="geometry">
            <mxPoint x="10" y="-10" as="offset" />
          </mxGeometry>
        </mxCell>
        <mxCell id="a8-iyr60ROHL3fEyFj0I-32" value="" style="endArrow=classic;html=1;rounded=0;entryX=0.17;entryY=0.117;entryDx=0;entryDy=0;entryPerimeter=0;" edge="1" parent="1" target="a8-iyr60ROHL3fEyFj0I-5">
          <mxGeometry width="50" height="50" relative="1" as="geometry">
            <mxPoint x="210" y="310" as="sourcePoint" />
            <mxPoint x="370" y="370" as="targetPoint" />
            <Array as="points">
              <mxPoint x="210" y="370" />
            </Array>
          </mxGeometry>
        </mxCell>
        <mxCell id="a8-iyr60ROHL3fEyFj0I-34" value="欲查詢之年月日" style="edgeLabel;html=1;align=center;verticalAlign=middle;resizable=0;points=[];" vertex="1" connectable="0" parent="a8-iyr60ROHL3fEyFj0I-32">
          <mxGeometry x="0.4361" relative="1" as="geometry">
            <mxPoint x="-24" y="-10" as="offset" />
          </mxGeometry>
        </mxCell>
        <mxCell id="a8-iyr60ROHL3fEyFj0I-33" value="" style="endArrow=classic;html=1;rounded=0;entryX=0.17;entryY=0.878;entryDx=0;entryDy=0;entryPerimeter=0;" edge="1" parent="1" target="a8-iyr60ROHL3fEyFj0I-5">
          <mxGeometry width="50" height="50" relative="1" as="geometry">
            <mxPoint x="210" y="500" as="sourcePoint" />
            <mxPoint x="210" y="410" as="targetPoint" />
            <Array as="points">
              <mxPoint x="210" y="430" />
            </Array>
          </mxGeometry>
        </mxCell>
        <mxCell id="a8-iyr60ROHL3fEyFj0I-35" value="欲查詢之年月日" style="edgeLabel;html=1;align=center;verticalAlign=middle;resizable=0;points=[];" vertex="1" connectable="0" parent="a8-iyr60ROHL3fEyFj0I-33">
          <mxGeometry x="0.2533" y="1" relative="1" as="geometry">
            <mxPoint y="-8" as="offset" />
          </mxGeometry>
        </mxCell>
        <mxCell id="a8-iyr60ROHL3fEyFj0I-53" value="" style="endArrow=classic;html=1;rounded=0;entryX=0;entryY=0.5;entryDx=0;entryDy=0;" edge="1" parent="1" target="a8-iyr60ROHL3fEyFj0I-4">
          <mxGeometry width="50" height="50" relative="1" as="geometry">
            <mxPoint x="435" y="381" as="sourcePoint" />
            <mxPoint x="435" y="240" as="targetPoint" />
            <Array as="points">
              <mxPoint x="435" y="270" />
            </Array>
          </mxGeometry>
        </mxCell>
        <mxCell id="a8-iyr60ROHL3fEyFj0I-54" value="收入" style="edgeLabel;html=1;align=center;verticalAlign=middle;resizable=0;points=[];" vertex="1" connectable="0" parent="a8-iyr60ROHL3fEyFj0I-53">
          <mxGeometry x="0.5772" y="-1" relative="1" as="geometry">
            <mxPoint y="-11" as="offset" />
          </mxGeometry>
        </mxCell>
        <mxCell id="a8-iyr60ROHL3fEyFj0I-68" style="edgeStyle=orthogonalEdgeStyle;rounded=0;orthogonalLoop=1;jettySize=auto;html=1;exitX=0.25;exitY=0;exitDx=0;exitDy=0;entryX=0.5;entryY=1;entryDx=0;entryDy=0;" edge="1" parent="1">
          <mxGeometry relative="1" as="geometry">
            <mxPoint x="521" y="385" as="sourcePoint" />
            <mxPoint x="521" y="310" as="targetPoint" />
          </mxGeometry>
        </mxCell>
        <mxCell id="a8-iyr60ROHL3fEyFj0I-69" value="程式使用次數" style="edgeLabel;html=1;align=center;verticalAlign=middle;resizable=0;points=[];" vertex="1" connectable="0" parent="a8-iyr60ROHL3fEyFj0I-68">
          <mxGeometry x="-0.2092" y="1" relative="1" as="geometry">
            <mxPoint x="41" as="offset" />
          </mxGeometry>
        </mxCell>
        <mxCell id="a8-iyr60ROHL3fEyFj0I-57" value="程式庫" style="shape=partialRectangle;whiteSpace=wrap;html=1;left=0;right=0;fillColor=none;" vertex="1" parent="1">
          <mxGeometry x="510" y="385" width="80" height="30" as="geometry" />
        </mxCell>
        <mxCell id="a8-iyr60ROHL3fEyFj0I-62" value="" style="endArrow=classic;html=1;rounded=0;exitX=0;exitY=0.5;exitDx=0;exitDy=0;entryX=1;entryY=0.385;entryDx=0;entryDy=0;entryPerimeter=0;" edge="1" parent="1" source="a8-iyr60ROHL3fEyFj0I-57">
          <mxGeometry width="50" height="50" relative="1" as="geometry">
            <mxPoint x="507.9999999999998" y="399.9000000000001" as="sourcePoint" />
            <mxPoint x="439.9999999999998" y="400.06000000000006" as="targetPoint" />
          </mxGeometry>
        </mxCell>
        <mxCell id="a8-iyr60ROHL3fEyFj0I-64" value="資料集" style="edgeLabel;html=1;align=center;verticalAlign=middle;resizable=0;points=[];" vertex="1" connectable="0" parent="a8-iyr60ROHL3fEyFj0I-62">
          <mxGeometry x="0.262" y="-1" relative="1" as="geometry">
            <mxPoint x="12" y="-8" as="offset" />
          </mxGeometry>
        </mxCell>
        <mxCell id="a8-iyr60ROHL3fEyFj0I-74" value="*1.1&lt;br&gt;資料集服務" style="ellipse;whiteSpace=wrap;html=1;aspect=fixed;" vertex="1" parent="1">
          <mxGeometry x="80" y="640" width="80" height="80" as="geometry" />
        </mxCell>
        <mxCell id="a8-iyr60ROHL3fEyFj0I-76" value="維護紀錄表" style="shape=partialRectangle;whiteSpace=wrap;html=1;left=0;right=0;fillColor=none;" vertex="1" parent="1">
          <mxGeometry x="280" y="570" width="80" height="30" as="geometry" />
        </mxCell>
        <mxCell id="a8-iyr60ROHL3fEyFj0I-84" value="" style="endArrow=classic;html=1;rounded=0;entryX=0.014;entryY=0.686;entryDx=0;entryDy=0;entryPerimeter=0;" edge="1" parent="1" target="a8-iyr60ROHL3fEyFj0I-9">
          <mxGeometry width="50" height="50" relative="1" as="geometry">
            <mxPoint x="160" y="695" as="sourcePoint" />
            <mxPoint x="279.68000000000006" y="694.6800000000001" as="targetPoint" />
          </mxGeometry>
        </mxCell>
        <mxCell id="a8-iyr60ROHL3fEyFj0I-85" value="維護狀況" style="edgeLabel;html=1;align=center;verticalAlign=middle;resizable=0;points=[];" vertex="1" connectable="0" parent="a8-iyr60ROHL3fEyFj0I-84">
          <mxGeometry x="-0.17" relative="1" as="geometry">
            <mxPoint x="10" y="-11" as="offset" />
          </mxGeometry>
        </mxCell>
        <mxCell id="a8-iyr60ROHL3fEyFj0I-88" value="" style="endArrow=classic;html=1;rounded=0;entryX=0.746;entryY=0.067;entryDx=0;entryDy=0;entryPerimeter=0;exitX=0;exitY=1;exitDx=0;exitDy=0;" edge="1" parent="1" source="a8-iyr60ROHL3fEyFj0I-8" target="a8-iyr60ROHL3fEyFj0I-9">
          <mxGeometry width="50" height="50" relative="1" as="geometry">
            <mxPoint x="390" y="620" as="sourcePoint" />
            <mxPoint x="340" y="640" as="targetPoint" />
            <Array as="points">
              <mxPoint x="492" y="600" />
              <mxPoint x="390" y="600" />
              <mxPoint x="390" y="620" />
              <mxPoint x="340" y="620" />
            </Array>
          </mxGeometry>
        </mxCell>
        <mxCell id="a8-iyr60ROHL3fEyFj0I-89" value="維護狀況" style="edgeLabel;html=1;align=center;verticalAlign=middle;resizable=0;points=[];" vertex="1" connectable="0" parent="a8-iyr60ROHL3fEyFj0I-88">
          <mxGeometry x="-0.0259" y="2" relative="1" as="geometry">
            <mxPoint x="10" y="-12" as="offset" />
          </mxGeometry>
        </mxCell>
      </root>
    </mxGraphModel>
  </diagram>
</mxfile>
